<svg xmlns="http://www.w3.org/2000/svg" viewBox="0 0 1260 460" width="2520" height="920"><defs><linearGradient id="qg" x1="0" y1="0" x2="0" y2="1"><stop offset="0" stop-color="#1a1150"/><stop offset="1" stop-color="#3b1a7a"/></linearGradient><linearGradient id="qt" x1="0" y1="0" x2="0" y2="1"><stop offset="0" stop-color="#ffffff"/><stop offset=".55" stop-color="#c8eefc"/><stop offset="1" stop-color="#5fd3f0"/></linearGradient><filter id="qn" x="-20%" y="-50%" width="140%" height="200%"><feGaussianBlur stdDeviation="9" result="b"/><feMerge><feMergeNode in="b"/><feMergeNode in="b"/><feMergeNode in="SourceGraphic"/></feMerge></filter></defs>
<rect x="10" y="10" width="1240" height="440" rx="40" fill="#ff5ad1"/><rect x="30" y="30" width="1200" height="400" rx="26" fill="url(#qg)"/><circle cx="30.0" cy="30.0" r="9" fill="#ff2d7a"/><circle cx="80.0" cy="30.0" r="9" fill="#fff6a8"/><circle cx="130.0" cy="30.0" r="9" fill="#ff2d7a"/><circle cx="180.0" cy="30.0" r="9" fill="#fff6a8"/><circle cx="230.0" cy="30.0" r="9" fill="#ff2d7a"/><circle cx="280.0" cy="30.0" r="9" fill="#fff6a8"/><circle cx="330.0" cy="30.0" r="9" fill="#ff2d7a"/><circle cx="380.0" cy="30.0" r="9" fill="#fff6a8"/><circle cx="430.0" cy="30.0" r="9" fill="#ff2d7a"/><circle cx="480.0" cy="30.0" r="9" fill="#fff6a8"/><circle cx="530.0" cy="30.0" r="9" fill="#ff2d7a"/><circle cx="580.0" cy="30.0" r="9" fill="#fff6a8"/><circle cx="630.0" cy="30.0" r="9" fill="#ff2d7a"/><circle cx="680.0" cy="30.0" r="9" fill="#fff6a8"/><circle cx="730.0" cy="30.0" r="9" fill="#ff2d7a"/><circle cx="780.0" cy="30.0" r="9" fill="#fff6a8"/><circle cx="830.0" cy="30.0" r="9" fill="#ff2d7a"/><circle cx="880.0" cy="30.0" r="9" fill="#fff6a8"/><circle cx="930.0" cy="30.0" r="9" fill="#ff2d7a"/><circle cx="980.0" cy="30.0" r="9" fill="#fff6a8"/><circle cx="1030.0" cy="30.0" r="9" fill="#ff2d7a"/><circle cx="1080.0" cy="30.0" r="9" fill="#fff6a8"/><circle cx="1130.0" cy="30.0" r="9" fill="#ff2d7a"/><circle cx="1180.0" cy="30.0" r="9" fill="#fff6a8"/><circle cx="1230.0" cy="30.0" r="9" fill="#ff2d7a"/><circle cx="1230.0" cy="80.0" r="9" fill="#fff6a8"/><circle cx="1230.0" cy="130.0" r="9" fill="#ff2d7a"/><circle cx="1230.0" cy="180.0" r="9" fill="#fff6a8"/><circle cx="1230.0" cy="230.0" r="9" fill="#ff2d7a"/><circle cx="1230.0" cy="280.0" r="9" fill="#fff6a8"/><circle cx="1230.0" cy="330.0" r="9" fill="#ff2d7a"/><circle cx="1230.0" cy="380.0" r="9" fill="#fff6a8"/><circle cx="1230.0" cy="430.0" r="9" fill="#ff2d7a"/><circle cx="1180.0" cy="430.0" r="9" fill="#fff6a8"/><circle cx="1130.0" cy="430.0" r="9" fill="#ff2d7a"/><circle cx="1080.0" cy="430.0" r="9" fill="#fff6a8"/><circle cx="1030.0" cy="430.0" r="9" fill="#ff2d7a"/><circle cx="980.0" cy="430.0" r="9" fill="#fff6a8"/><circle cx="930.0" cy="430.0" r="9" fill="#ff2d7a"/><circle cx="880.0" cy="430.0" r="9" fill="#fff6a8"/><circle cx="830.0" cy="430.0" r="9" fill="#ff2d7a"/><circle cx="780.0" cy="430.0" r="9" fill="#fff6a8"/><circle cx="730.0" cy="430.0" r="9" fill="#ff2d7a"/><circle cx="680.0" cy="430.0" r="9" fill="#fff6a8"/><circle cx="630.0" cy="430.0" r="9" fill="#ff2d7a"/><circle cx="580.0" cy="430.0" r="9" fill="#fff6a8"/><circle cx="530.0" cy="430.0" r="9" fill="#ff2d7a"/><circle cx="480.0" cy="430.0" r="9" fill="#fff6a8"/><circle cx="430.0" cy="430.0" r="9" fill="#ff2d7a"/><circle cx="380.0" cy="430.0" r="9" fill="#fff6a8"/><circle cx="330.0" cy="430.0" r="9" fill="#ff2d7a"/><circle cx="280.0" cy="430.0" r="9" fill="#fff6a8"/><circle cx="230.0" cy="430.0" r="9" fill="#ff2d7a"/><circle cx="180.0" cy="430.0" r="9" fill="#fff6a8"/><circle cx="130.0" cy="430.0" r="9" fill="#ff2d7a"/><circle cx="80.0" cy="430.0" r="9" fill="#fff6a8"/><circle cx="30.0" cy="430.0" r="9" fill="#ff2d7a"/><circle cx="30.0" cy="380.0" r="9" fill="#fff6a8"/><circle cx="30.0" cy="330.0" r="9" fill="#ff2d7a"/><circle cx="30.0" cy="280.0" r="9" fill="#fff6a8"/><circle cx="30.0" cy="230.0" r="9" fill="#ff2d7a"/><circle cx="30.0" cy="180.0" r="9" fill="#fff6a8"/><circle cx="30.0" cy="130.0" r="9" fill="#ff2d7a"/><circle cx="30.0" cy="80.0" r="9" fill="#fff6a8"/>
<g filter="url(#qn)"><text x="630" y="255" text-anchor="middle" font-family="'Press Start 2P', monospace" font-size="104" fill="#ff2d7a" letter-spacing="6">CAPICÚA</text></g>
<text x="630" y="255" text-anchor="middle" font-family="'Press Start 2P', monospace" font-size="104" fill="url(#qt)" letter-spacing="6">CAPICÚA</text>
<text x="630" y="345" text-anchor="middle" font-family="'Press Start 2P', monospace" font-size="26" fill="#ffc83a" letter-spacing="6">GAME CENTER · MATEMÁTICAS</text>
<text x="630" y="395" text-anchor="middle" font-family="'Press Start 2P', monospace" font-size="18" fill="#5fd3f0" letter-spacing="4">INSERT COIN = 1 RESPUESTA CORRECTA</text>
<path d="M120 98Q123.52 116.48 142 120Q123.52 123.52 120 142Q116.48 123.52 98 120Q116.48 116.48 120 98Z" fill="#fff"/><path d="M1140 98Q1143.52 116.48 1162 120Q1143.52 123.52 1140 142Q1136.48 123.52 1118 120Q1136.48 116.48 1140 98Z" fill="#fff"/></svg>